<?xml version="1.0" encoding="utf-8"?>
<!-- Generator: Adobe Illustrator 26.3.1, SVG Export Plug-In . SVG Version: 6.00 Build 0)  -->
<svg version="1.1" id="Layer_1" xmlns="http://www.w3.org/2000/svg" xmlns:xlink="http://www.w3.org/1999/xlink" x="0px" y="0px"
	 viewBox="0 0 400 400" style="enable-background:new 0 0 400 400;" xml:space="preserve">
<style type="text/css">
	.st0{fill:#006837;}
</style>
<g>
	<path class="st0" d="M20.94,261.64V138.36c0-50.71,28.87-78.8,80.36-78.8c51.49,0,79.97,28.09,79.97,78.8v19.9h-51.49v-21.85
		c0-19.89-9.75-30.82-27.31-30.82c-17.16,0-26.92,10.92-26.92,30.82v127.17c0,19.9,9.75,30.82,26.92,30.82
		c17.55,0,27.31-10.92,27.31-30.82v-29.65h51.49v27.7c0,50.71-28.48,78.8-79.97,78.8C49.81,340.43,20.94,312.35,20.94,261.64z"/>
	<path class="st0" d="M201.17,63.47h55.78l35.11,209.87l35.11-209.87h51.88L326,336.14h-71.78L201.17,63.47z"/>
</g>
</svg>
